<?xml version="1.0" standalone="no"?>
<!DOCTYPE svg PUBLIC "-//W3C//DTD SVG 20010904//EN"
 "http://www.w3.org/TR/2001/REC-SVG-20010904/DTD/svg10.dtd">
<svg version="1.0" xmlns="http://www.w3.org/2000/svg"
 width="559.000000pt" height="897.000000pt" viewBox="0 0 559.000000 897.000000"
 preserveAspectRatio="xMidYMid meet">
<metadata>
Created by potrace 1.16, written by Peter Selinger 2001-2019
</metadata>
<g transform="translate(0.000000,897.000000) scale(0.100000,-0.100000)"
fill="#000000" stroke="none">
<path d="M10 1a1 1 0 00-1 1v3.267l-4.886-.642a1 1 0 00-.707 1.7l3.527 3.527-3.527 3.527a1 1 0 001.413 1.415L9 9.732v3.035l-1.293 1.293a1 1 0 001.414 1.415L10 14.414l1.293 1.293a1 1 0 001.414-1.415L11 12.767V9.732l3.886 3.886a1 1 0 001.414-1.415L11 8.732V5.267l3.886 3.886a1 1 0 00.707-1.7L11 5.267V2a1 1 0 00-1-1z"/>
</g>
</svg>
