<svg xmlns="http://www.w3.org/2000/svg" viewBox="0 0 512 512"><g fill="#99DDFF"><path d="M 512 256 c 0 -9.217 -7.479 -16.696 -16.696 -16.696 h -26.478 l 32.718 -32.718 c 6.521 -6.521 6.521 -17.087 0 -23.609 s -17.087 -6.521 -23.609 0 l -56.327 56.327 h -83.813 c -2.168 -10.642 -6.39 -20.536 -12.197 -29.295 l 59.303 -59.303 h 79.663 c 9.217 0 16.696 -7.479 16.696 -16.696 s -7.479 -16.696 -16.696 -16.696 h -46.271 l 18.728 -18.728 c 6.521 -6.521 6.521 -17.087 0 -23.609 s -17.087 -6.521 -23.609 0 l -18.727 18.728 V 47.435 c 0 -9.217 -7.479 -16.696 -16.696 -16.696 c -9.217 0 -16.696 7.479 -16.696 16.696 v 79.663 L 301.991 186.4 c -8.759 -5.807 -18.652 -10.027 -29.295 -12.197 V 90.391 l 56.326 -56.326 c 6.521 -6.521 6.521 -17.087 0 -23.609 s -17.087 -6.521 -23.609 0 l -32.717 32.717 V 16.696 C 272.696 7.479 265.217 0 256 0 s -16.696 7.479 -16.696 16.696 v 26.478 l -32.718 -32.717 c -6.521 -6.521 -17.087 -6.521 -23.609 0 s -6.521 17.087 0 23.609 l 56.327 56.326 v 83.813 c -10.642 2.168 -20.536 6.39 -29.295 12.197 l -59.303 -59.303 V 47.435 c 0 -9.217 -7.479 -16.696 -16.696 -16.696 s -16.696 7.479 -16.696 16.696 v 46.271 L 98.587 74.978 c -6.521 -6.521 -17.087 -6.521 -23.609 0 s -6.521 17.087 0 23.609 l 18.728 18.728 H 47.435 c -9.217 0 -16.696 7.479 -16.696 16.696 c 0 9.217 7.479 16.696 16.696 16.696 h 79.663 l 59.303 59.303 c -5.807 8.759 -10.027 18.652 -12.197 29.295 H 90.391 l -56.326 -56.326 c -6.521 -6.521 -17.087 -6.521 -23.609 0 s -6.521 17.087 0 23.609 l 32.717 32.717 H 16.696 C 7.479 239.304 0 246.783 0 256 s 7.479 16.696 16.696 16.696 h 26.478 l -32.717 32.718 c -6.521 6.521 -6.521 17.087 0 23.609 c 3.26 3.26 7.532 4.891 11.804 4.891 s 8.544 -1.631 11.804 -4.892 l 56.327 -56.326 h 83.813 c 2.168 10.642 6.39 20.536 12.197 29.295 l -59.303 59.303 H 47.435 c -9.217 0 -16.696 7.479 -16.696 16.696 c 0 9.217 7.479 16.696 16.696 16.696 h 46.271 l -18.728 18.728 c -6.521 6.521 -6.521 17.087 0 23.609 c 3.261 3.261 7.533 4.892 11.804 4.892 s 8.544 -1.631 11.804 -4.892 l 18.728 -18.728 v 46.271 c 0 9.217 7.479 16.696 16.696 16.696 s 16.696 -7.479 16.696 -16.696 v -79.663 l 59.303 -59.303 c 8.759 5.807 18.652 10.027 29.295 12.197 v 83.813 l -56.326 56.326 c -6.521 6.521 -6.521 17.087 0 23.609 s 17.087 6.521 23.609 0 l 32.718 -32.718 v 26.478 c 0 9.217 7.479 16.696 16.696 16.696 s 16.696 -7.479 16.696 -16.696 v -26.478 l 32.718 32.718 c 3.261 3.261 7.533 4.892 11.804 4.892 s 8.544 -1.631 11.804 -4.892 c 6.521 -6.521 6.521 -17.087 0 -23.609 l -56.326 -56.327 v -83.813 c 10.642 -2.168 20.536 -6.39 29.295 -12.197 l 59.303 59.303 v 79.663 c 0 9.217 7.479 16.696 16.696 16.696 c 9.217 0 16.696 -7.479 16.696 -16.696 v -46.271 l 18.728 18.728 c 3.261 3.261 7.533 4.892 11.804 4.892 s 8.544 -1.631 11.804 -4.892 c 6.521 -6.521 6.521 -17.087 0 -23.609 l -18.727 -18.727 h 46.271 c 9.217 0 16.696 -7.479 16.696 -16.696 c 0 -9.217 -7.479 -16.696 -16.696 -16.696 h -79.663 L 325.6 301.991 c 5.807 -8.759 10.027 -18.652 12.197 -29.295 h 83.813 l 56.326 56.326 c 3.261 3.261 7.533 4.892 11.804 4.892 s 8.544 -1.631 11.804 -4.892 c 6.521 -6.521 6.521 -17.087 0 -23.609 l -32.717 -32.717 h 26.478 C 504.521 272.696 512 265.217 512 256 Z M 256 306.087 c -27.619 0 -50.087 -22.468 -50.087 -50.087 s 22.468 -50.087 50.087 -50.087 s 50.087 22.468 50.087 50.087 S 283.619 306.087 256 306.087 Z"/><circle cx="420.9" cy="296.5" r="45.7"/><path d="M520.5 78.1z"/></g></svg>